<?xml version="1.0" encoding="utf-8"?>
<!-- Generator: Adobe Illustrator 24.0.0, SVG Export Plug-In . SVG Version: 6.00 Build 0)  -->
<svg version="1.1" id="Livello_1" xmlns="http://www.w3.org/2000/svg" xmlns:xlink="http://www.w3.org/1999/xlink" x="0px" y="0px"
	 viewBox="0 0 80 77.5" style="enable-background:new 0 0 80 77.5;" xml:space="preserve">
<style type="text/css">
	.st0{fill:#AF3C32;}
</style>
<path class="st0" d="M66.1,56.8H55.6v-6.6c5.1-3.5,9-8.8,10.8-14.9h2.4c1.7,0,3.1-1.4,3.1-3.1v-6.3c0-1.5-1.1-2.8-2.6-3V9.7
	c2.1-0.5,3.7-2.3,3.7-4.6c0-2.6-2.1-4.7-4.7-4.7s-4.7,2.1-4.7,4.7c0,2.2,1.6,4.1,3.7,4.6v13.2h-0.1C64.9,9.9,53.6,0,40,0
	C26.4,0,15.1,9.9,12.8,22.9h-1.7c-1.7,0-3.1,1.4-3.1,3.1v6.3c0,1.7,1.4,3.1,3.1,3.1h2.5c1.8,6.2,5.7,11.5,10.9,15v6.5H13.9
	C6.2,56.8,0,63.1,0,70.8v5.7c0,0.6,0.4,1,1,1h78c0.6,0,1-0.4,1-1v-5.7C80,63.1,73.8,56.8,66.1,56.8z M61.5,58.8v16.7H18.5V58.8H61.5
	z M14.4,27.8C14.6,17.6,26,9.3,40,9.3s25.4,8.3,25.5,18.5c0,0.5,0,1-0.1,1.5c-0.9,9.7-12,17.4-25.5,17.4s-24.5-7.7-25.5-17.4
	C14.5,28.9,14.4,28.3,14.4,27.8z M69.8,25.9v6.3c0,0.6-0.5,1.1-1.1,1.1h-1.9c0.3-1.2,0.4-2.5,0.5-3.8c0-0.5,0.1-1,0.1-1.5
	c0-0.1,0-0.1,0-0.2c0-0.1,0-0.2,0-0.3c0-0.9,0-1.8-0.1-2.7h1.4C69.4,24.9,69.8,25.4,69.8,25.9z M65.5,5.1c0-1.5,1.2-2.7,2.7-2.7
	s2.7,1.2,2.7,2.7s-1.2,2.7-2.7,2.7S65.5,6.6,65.5,5.1z M40,2c10.3,0,19.2,6.1,23.2,14.9C58.3,11.1,49.7,7.3,40,7.3
	s-18.3,3.8-23.2,9.6C20.8,8.1,29.7,2,40,2z M11.1,33.3c-0.6,0-1.1-0.5-1.1-1.1v-6.3c0-0.6,0.5-1.1,1.1-1.1h1.5
	c-0.1,0.9-0.1,1.8-0.1,2.7c0,0.1,0,0.2,0,0.3c0,0.1,0,0.1,0,0.2c0,0.5,0,1,0.1,1.5c0.1,1.3,0.3,2.6,0.5,3.8L11.1,33.3L11.1,33.3z
	 M18,40.5c5,5,13,8.3,22,8.3s17-3.3,22-8.3C57.6,48,49.4,53.1,40,53.1C30.6,53.1,22.4,48,18,40.5z M26.5,51.6
	c4,2.3,8.6,3.5,13.5,3.5c5,0,9.6-1.3,13.6-3.6v5.4H26.5V51.6z M2,70.8c0-6.6,5.4-11.9,11.9-11.9h2.5v16.7H2V70.8z M78,75.5H63.5
	V58.8h2.5c6.6,0,11.9,5.4,11.9,11.9V75.5z"/>
<path class="st0" d="M20.2,25.4c0-0.1,2.1-5.2,8.2-7.3c0.5-0.2,0.8-0.7,0.6-1.3c-0.2-0.5-0.8-0.8-1.3-0.6c-7.1,2.4-9.3,8.3-9.4,8.5
	c-0.2,0.5,0.1,1.1,0.6,1.3c0.1,0,0.2,0.1,0.4,0.1C19.6,26.1,20,25.8,20.2,25.4z"/>
<path class="st0" d="M26.4,71.4c2.3,0,4.2-1.9,4.2-4.2S28.7,63,26.4,63s-4.2,1.9-4.2,4.2S24.1,71.4,26.4,71.4z M26.4,65
	c1.2,0,2.2,1,2.2,2.2c0,1.2-1,2.2-2.2,2.2s-2.2-1-2.2-2.2C24.2,65.9,25.2,65,26.4,65z"/>
<path class="st0" d="M36.7,71.4c2.3,0,4.2-1.9,4.2-4.2S39,63,36.7,63s-4.2,1.9-4.2,4.2S34.3,71.4,36.7,71.4z M36.7,65
	c1.2,0,2.2,1,2.2,2.2c0,1.2-1,2.2-2.2,2.2s-2.2-1-2.2-2.2C34.5,65.9,35.4,65,36.7,65z"/>
</svg>
