<svg xmlns="http://www.w3.org/2000/svg" width="641.378" height="171.759" viewBox="0 0 641.378 171.759"><defs><style>.a{fill:#1a1a1a;}.b{fill:#f93b13;}.c{fill:#4d4d4d;}.d{fill:#af3c32;font-size:17px;font-family:Montserrat-Medium, Montserrat;font-weight:500;letter-spacing:0.08em;}</style></defs><g transform="translate(-1132.441 -539.241)"><g transform="translate(1132.441 539.241)"><g transform="translate(0)"><g transform="translate(0 47.981)"><path class="a" d="M72.205,124.8,72.1,77.262,48.807,116.435H40.549L17.257,78.215V124.8H0V45.5H15.14L44.784,94.731,74.111,45.5H89.145l.212,79.3Z" transform="translate(0 -44.018)"/><path class="a" d="M163.606,110.082V124.8H102.2V45.5h59.924V60.216H120.41V77.474h36.844V91.766H120.41v18.316Z" transform="translate(6.002 -44.018)"/><path class="a" d="M224.5,124.8l-15.246-22.127h-16.94V124.8H174V45.5h34.3a44.515,44.515,0,0,1,18.316,3.494,27.855,27.855,0,0,1,11.964,9.952,27.915,27.915,0,0,1,4.235,15.246,26.812,26.812,0,0,1-4.235,15.246,27.955,27.955,0,0,1-12.069,9.846L244.3,124.8Zm-4.658-60.771c-2.859-2.329-7.093-3.6-12.6-3.6H192.316V88.061h14.928c5.505,0,9.74-1.165,12.6-3.6A12.669,12.669,0,0,0,224.184,74.3C224.184,69.851,222.7,66.463,219.843,64.028Z" transform="translate(10.219 -44.018)"/><path class="a" d="M268.969,120.964a39.482,39.482,0,0,1-15.457-14.61A40.561,40.561,0,0,1,247.9,85.179,40.833,40.833,0,0,1,253.511,64a38.783,38.783,0,0,1,15.457-14.61A49.154,49.154,0,0,1,309.624,47.7,38.963,38.963,0,0,1,323.6,58.075l-11.752,10.9c-5.4-6.141-11.964-9.317-19.9-9.317a26.77,26.77,0,0,0-13.128,3.176,22.987,22.987,0,0,0-9,9,26.77,26.77,0,0,0-3.176,13.128A26.77,26.77,0,0,0,269.816,98.1a22.986,22.986,0,0,0,9,9,26.77,26.77,0,0,0,13.128,3.176,25.118,25.118,0,0,0,19.9-9.423l11.752,10.9a36.725,36.725,0,0,1-14.081,10.587,46.583,46.583,0,0,1-18.74,3.6A41.974,41.974,0,0,1,268.969,120.964Z" transform="translate(14.559 -44.1)"/><path class="a" d="M339.223,116.752c-6.352-6.247-9.423-15.246-9.423-26.892V45.5h18.316V89.225c0,14.187,5.929,21.28,17.681,21.28,5.717,0,10.164-1.694,13.128-5.188,3.07-3.388,4.552-8.787,4.552-16.093V45.5h18.1V89.861c0,11.646-3.176,20.539-9.423,26.892-6.352,6.246-15.14,9.423-26.468,9.423S345.575,123,339.223,116.752Z" transform="translate(19.369 -44.018)"/><path class="a" d="M465.307,124.8l-15.352-22.022h-16.94V124.9H414.7V45.5H449a44.515,44.515,0,0,1,18.316,3.494,27.855,27.855,0,0,1,11.964,9.952,27.915,27.915,0,0,1,4.235,15.246,26.812,26.812,0,0,1-4.235,15.246,27.955,27.955,0,0,1-12.07,9.846L485,124.8Zm-4.658-60.771c-2.859-2.329-7.093-3.6-12.6-3.6H433.122V88.061H448.05c5.505,0,9.74-1.165,12.6-3.6A12.669,12.669,0,0,0,464.99,74.3C464.99,69.851,463.507,66.463,460.649,64.028Z" transform="translate(24.355 -44.018)"/><path class="a" d="M493.4,45.5h18.316v79.3H493.4Z" transform="translate(28.977 -44.018)"/></g><path class="a" d="M24.986,15.775H27.1v11.54a15.024,15.024,0,0,1-4.87,2.964,19.15,19.15,0,0,1-6.141,1.059,16.456,16.456,0,0,1-8.258-2.012,14.568,14.568,0,0,1-5.717-5.611A15.731,15.731,0,0,1,0,15.669,15.731,15.731,0,0,1,2.117,7.623,15.312,15.312,0,0,1,7.835,2.012,17.142,17.142,0,0,1,16.2,0a17.21,17.21,0,0,1,6.247,1.059,13.873,13.873,0,0,1,4.87,3.176L25.939,5.717A11.209,11.209,0,0,0,21.6,2.964,16.812,16.812,0,0,0,16.3,2.117a15.122,15.122,0,0,0-7.2,1.8A12.93,12.93,0,0,0,4.023,8.682a13.9,13.9,0,0,0-1.8,6.882,13.608,13.608,0,0,0,1.8,6.882A12.245,12.245,0,0,0,9,27.315a14.408,14.408,0,0,0,7.093,1.8,13.487,13.487,0,0,0,8.787-2.859V15.775Z" transform="translate(0)"/><path class="a" d="M110.845,22.327H92.952l-3.917,8.682H86.6L100.787.2h2.223L117.2,31.009h-2.435ZM110,20.422,101.846,2.635,93.8,20.422Z" transform="translate(5.086 0.012)"/><path class="a" d="M200.7,17.775a7.478,7.478,0,0,1,1.694,5.188A6.976,6.976,0,0,1,199.533,29c-1.906,1.376-4.764,2.117-8.47,2.117H177.3V.2h12.811c3.388,0,5.929.635,7.835,2.012A6.639,6.639,0,0,1,200.7,8.035a6.766,6.766,0,0,1-1.376,4.447,8.279,8.279,0,0,1-3.811,2.647A8.416,8.416,0,0,1,200.7,17.775ZM179.629,2.106V14.387h10.481a10.689,10.689,0,0,0,6.247-1.588,5.213,5.213,0,0,0,2.223-4.553,5.213,5.213,0,0,0-2.223-4.553,10.466,10.466,0,0,0-6.247-1.588Zm18.316,25.409a5.372,5.372,0,0,0,2.329-4.87c0-2.223-.741-3.811-2.329-4.764a12.1,12.1,0,0,0-6.776-1.588h-11.54V29h11.54A11.319,11.319,0,0,0,197.945,27.515Z" transform="translate(9.31 0.012)"/><path class="a" d="M286.58,31.009l-7.305-10.27c-1.059.106-2.117.212-2.964.212h-8.787V31.009H265.3V.2h11.011c3.917,0,6.882.953,9.105,2.753a9.214,9.214,0,0,1,3.282,7.623,9.871,9.871,0,0,1-1.906,6.141,9.68,9.68,0,0,1-5.4,3.494l7.729,10.8ZM276.2,18.939c3.282,0,5.823-.741,7.517-2.223a7.756,7.756,0,0,0,2.647-6.141,7.3,7.3,0,0,0-2.647-6.141c-1.694-1.482-4.235-2.223-7.517-2.223h-8.787V18.939Z" transform="translate(13.935 0.012)"/><path class="a" d="M351.7.2h2.223V31.009H351.7Z" transform="translate(18.547 0.012)"/><path class="a" d="M441.78,29v2.012H420.5V.2h20.645V2.212H422.829V14.387h16.41V16.4h-16.41V29Z" transform="translate(22.098 0.012)"/><path class="a" d="M504.9.2h2.223V29H524.91v2.012H504.9Z" transform="translate(26.034 0.012)"/><path class="a" d="M606.98,29v2.012H585.7V.2h20.645V2.212H588.029V14.387h16.41V16.4h-16.41V29Z" transform="translate(30.779 0.012)"/><path class="b" d="M604.9,64.21a40.806,40.806,0,0,0-15.563-14.716A45.412,45.412,0,0,0,567.108,44.2a46.6,46.6,0,0,0-22.233,5.294A39.577,39.577,0,0,0,523.7,85.279a40.074,40.074,0,0,0,5.611,20.963,39.357,39.357,0,0,0,15.563,14.716,45.7,45.7,0,0,0,22.233,5.294,46.6,46.6,0,0,0,22.233-5.294A40.806,40.806,0,0,0,604.9,106.241a39.449,39.449,0,0,0,5.717-20.963A39.555,39.555,0,0,0,604.9,64.21Z" transform="translate(30.756 3.887)"/></g><g transform="translate(592.57 85.516)"><circle class="c" cx="5.294" cy="5.294" r="5.294"/></g></g><text class="d" transform="translate(1451 707)"><tspan x="-163.693" y="0">JR FULL STACK WEB DEVELOPER</tspan></text></g></svg>