<svg xmlns="http://www.w3.org/2000/svg" width="25.812" height="25.275" viewBox="0 0 25.812 25.275"><defs><style>.a{fill:#fff;}</style></defs><g transform="translate(0 -5.329)"><g transform="translate(0 5.329)"><path class="a" d="M12.9,5.329A12.965,12.965,0,0,0,8.828,30.581c.645.119.881-.281.881-.624,0-.308-.011-1.123-.018-2.2-3.589.782-4.348-1.737-4.348-1.737a3.422,3.422,0,0,0-1.433-1.9c-1.173-.8.087-.787.087-.787a2.711,2.711,0,0,1,1.976,1.336,2.743,2.743,0,0,0,3.757,1.076,2.766,2.766,0,0,1,.82-1.733c-2.865-.327-5.879-1.439-5.879-6.4A5.022,5.022,0,0,1,6,14.131,4.669,4.669,0,0,1,6.127,10.7s1.084-.348,3.549,1.328a12.182,12.182,0,0,1,6.463,0C18.6,10.356,19.685,10.7,19.685,10.7a4.676,4.676,0,0,1,.129,3.428,5.013,5.013,0,0,1,1.326,3.478c0,4.977-3.017,6.072-5.892,6.393a3.1,3.1,0,0,1,.876,2.4c0,1.733-.016,3.13-.016,3.554,0,.347.232.75.887.623A12.966,12.966,0,0,0,12.9,5.329Z" transform="translate(0 -5.329)"/></g></g></svg>