<svg xmlns="http://www.w3.org/2000/svg" width="222.954" height="269.26" viewBox="0 0 222.954 269.26"><defs><style>.a{opacity:0.079;}</style></defs><g class="a" transform="translate(0 -296.094)"><g transform="translate(0 296.094)"><circle cx="4.947" cy="4.947" r="4.947"/><circle cx="4.947" cy="4.947" r="4.947" transform="translate(53.184)"/><circle cx="4.947" cy="4.947" r="4.947" transform="translate(106.367)"/><circle cx="4.947" cy="4.947" r="4.947" transform="translate(159.551)"/><circle cx="4.947" cy="4.947" r="4.947" transform="translate(213.061)"/><circle cx="4.947" cy="4.947" r="4.947" transform="translate(0 52.007)"/><circle cx="4.947" cy="4.947" r="4.947" transform="translate(53.184 52.007)"/><circle cx="4.947" cy="4.947" r="4.947" transform="translate(106.367 52.007)"/><circle cx="4.947" cy="4.947" r="4.947" transform="translate(159.551 52.007)"/><circle cx="4.947" cy="4.947" r="4.947" transform="translate(213.061 52.007)"/><circle cx="4.947" cy="4.947" r="4.947" transform="translate(0 103.679)"/><circle cx="4.947" cy="4.947" r="4.947" transform="translate(53.184 103.679)"/><circle cx="4.947" cy="4.947" r="4.947" transform="translate(106.367 103.679)"/><circle cx="4.947" cy="4.947" r="4.947" transform="translate(159.551 103.679)"/><circle cx="4.947" cy="4.947" r="4.947" transform="translate(213.061 103.679)"/><circle cx="4.947" cy="4.947" r="4.947" transform="translate(0 155.687)"/><circle cx="4.947" cy="4.947" r="4.947" transform="translate(53.184 155.687)"/><circle cx="4.947" cy="4.947" r="4.947" transform="translate(106.367 155.687)"/><circle cx="4.947" cy="4.947" r="4.947" transform="translate(159.551 155.687)"/><circle cx="4.947" cy="4.947" r="4.947" transform="translate(213.061 155.687)"/><circle cx="4.947" cy="4.947" r="4.947" transform="translate(0 207.694)"/><circle cx="4.947" cy="4.947" r="4.947" transform="translate(53.184 207.694)"/><circle cx="4.947" cy="4.947" r="4.947" transform="translate(106.367 207.694)"/><circle cx="4.947" cy="4.947" r="4.947" transform="translate(159.551 207.694)"/><circle cx="4.947" cy="4.947" r="4.947" transform="translate(213.061 207.694)"/><circle cx="4.947" cy="4.947" r="4.947" transform="translate(0 259.366)"/><circle cx="4.947" cy="4.947" r="4.947" transform="translate(53.184 259.366)"/><circle cx="4.947" cy="4.947" r="4.947" transform="translate(106.367 259.366)"/><circle cx="4.947" cy="4.947" r="4.947" transform="translate(159.551 259.366)"/><circle cx="4.947" cy="4.947" r="4.947" transform="translate(213.061 259.366)"/></g></g></svg>