<svg xmlns="http://www.w3.org/2000/svg" xmlns:xlink="http://www.w3.org/1999/xlink" width="563.4" height="563.4" viewBox="0 0 563.4 563.4"><defs><style>.a,.c{fill:none;}.b{clip-path:url(#a);}.c{stroke:#af3c32;stroke-miterlimit:10;stroke-width:2px;}.d{clip-path:url(#b);}.e{clip-path:url(#c);}.f{clip-path:url(#d);}.g{clip-path:url(#e);}.h{clip-path:url(#f);}.i{clip-path:url(#g);}.j{clip-path:url(#h);}.k{clip-path:url(#i);}.l{clip-path:url(#j);}.m{clip-path:url(#k);}.n{clip-path:url(#l);}.o{clip-path:url(#m);}.p{clip-path:url(#n);}.q{clip-path:url(#o);}.r{clip-path:url(#p);}.s{clip-path:url(#q);}.t{clip-path:url(#r);}.u{clip-path:url(#s);}.v{clip-path:url(#t);}.w{clip-path:url(#u);}.x{clip-path:url(#v);}.y{clip-path:url(#w);}.z{clip-path:url(#x);}.aa{clip-path:url(#y);}.ab{clip-path:url(#z);}.ac{clip-path:url(#aa);}.ad{clip-path:url(#ab);}</style><clipPath id="a"><circle class="a" cx="281.7" cy="281.7" r="281.7" transform="translate(167.3 151.6)"/></clipPath><clipPath id="b"><circle class="a" cx="281.7" cy="281.7" r="281.7" transform="translate(151.6 135.9)"/></clipPath><clipPath id="c"><circle class="a" cx="281.7" cy="281.7" r="281.7" transform="translate(135.9 120.2)"/></clipPath><clipPath id="d"><circle class="a" cx="281.7" cy="281.7" r="281.7" transform="translate(120.2 104.5)"/></clipPath><clipPath id="e"><circle class="a" cx="281.7" cy="281.7" r="281.7" transform="translate(104.5 88.8)"/></clipPath><clipPath id="f"><circle class="a" cx="281.7" cy="281.7" r="281.7" transform="translate(88.8 73.1)"/></clipPath><clipPath id="g"><circle class="a" cx="281.7" cy="281.7" r="281.7" transform="translate(73.2 57.5)"/></clipPath><clipPath id="h"><circle class="a" cx="281.7" cy="281.7" r="281.7" transform="translate(57.5 41.8)"/></clipPath><clipPath id="i"><circle class="a" cx="281.7" cy="281.7" r="281.7" transform="translate(41.8 26.1)"/></clipPath><clipPath id="j"><circle class="a" cx="281.7" cy="281.7" r="281.7" transform="translate(26.1 10.4)"/></clipPath><clipPath id="k"><circle class="a" cx="281.7" cy="281.7" r="281.7" transform="translate(10.4 -5.3)"/></clipPath><clipPath id="l"><circle class="a" cx="281.7" cy="281.7" r="281.7" transform="translate(-5.3 -21)"/></clipPath><clipPath id="m"><circle class="a" cx="281.7" cy="281.7" r="281.7" transform="translate(-21 -36.7)"/></clipPath><clipPath id="n"><circle class="a" cx="281.7" cy="281.7" r="281.7" transform="translate(-36.7 -52.4)"/></clipPath><clipPath id="o"><circle class="a" cx="281.7" cy="281.7" r="281.7" transform="translate(-52.4 -68.1)"/></clipPath><clipPath id="p"><circle class="a" cx="281.7" cy="281.7" r="281.7" transform="translate(-68.1 -83.8)"/></clipPath><clipPath id="q"><circle class="a" cx="281.7" cy="281.7" r="281.7" transform="translate(-83.7 -99.4)"/></clipPath><clipPath id="r"><circle class="a" cx="281.7" cy="281.7" r="281.7" transform="translate(-99.4 -115.1)"/></clipPath><clipPath id="s"><circle class="a" cx="281.7" cy="281.7" r="281.7" transform="translate(-115.1 -130.8)"/></clipPath><clipPath id="t"><circle class="a" cx="281.7" cy="281.7" r="281.7" transform="translate(-130.8 -146.5)"/></clipPath><clipPath id="u"><circle class="a" cx="281.7" cy="281.7" r="281.7" transform="translate(-146.5 -162.2)"/></clipPath><clipPath id="v"><circle class="a" cx="281.7" cy="281.7" r="281.7" transform="translate(-162.2 -177.9)"/></clipPath><clipPath id="w"><circle class="a" cx="281.7" cy="281.7" r="281.7" transform="translate(-177.9 -193.6)"/></clipPath><clipPath id="x"><circle class="a" cx="281.7" cy="281.7" r="281.7" transform="translate(-193.6 -209.3)"/></clipPath><clipPath id="y"><circle class="a" cx="281.7" cy="281.7" r="281.7" transform="translate(-209.3 -225)"/></clipPath><clipPath id="z"><circle class="a" cx="281.7" cy="281.7" r="281.7" transform="translate(-225 -240.7)"/></clipPath><clipPath id="aa"><circle class="a" cx="281.7" cy="281.7" r="281.7" transform="translate(-240.6 -256.3)"/></clipPath><clipPath id="ab"><circle class="a" cx="281.7" cy="281.7" r="281.7" transform="translate(-256.3 -272)"/></clipPath></defs><g transform="translate(715.7 -168) rotate(90)"><g class="b" transform="translate(0.7 0.7)"><line class="c" y1="458.6" x2="458.6"/></g><g class="d" transform="translate(16.4 16.4)"><line class="c" y1="458.6" x2="458.6"/></g><g class="e" transform="translate(32.1 32.1)"><line class="c" y1="458.6" x2="458.6"/></g><g class="f" transform="translate(47.8 47.8)"><line class="c" y1="458.6" x2="458.6"/></g><g class="g" transform="translate(63.5 63.5)"><line class="c" y1="458.6" x2="458.6"/></g><g class="h" transform="translate(79.2 79.2)"><line class="c" y1="458.6" x2="458.6"/></g><g class="i" transform="translate(94.8 94.8)"><line class="c" y1="458.7" x2="458.7"/></g><g class="j" transform="translate(110.5 110.5)"><line class="c" y1="458.7" x2="458.7"/></g><g class="k" transform="translate(126.2 126.2)"><line class="c" y1="458.6" x2="458.6"/></g><g class="l" transform="translate(141.9 141.9)"><line class="c" y1="458.6" x2="458.6"/></g><g class="m" transform="translate(157.6 157.6)"><line class="c" y1="458.6" x2="458.6"/></g><g class="n" transform="translate(173.3 173.3)"><line class="c" y1="458.6" x2="458.6"/></g><g class="o" transform="translate(189 189)"><line class="c" y1="458.6" x2="458.6"/></g><g class="p" transform="translate(204.7 204.7)"><line class="c" y1="458.6" x2="458.6"/></g><g class="q" transform="translate(220.4 220.4)"><line class="c" y1="458.6" x2="458.6"/></g><g class="r" transform="translate(236.1 236.1)"><line class="c" y1="458.6" x2="458.6"/></g><g class="s" transform="translate(251.7 251.7)"><line class="c" y1="458.7" x2="458.7"/></g><g class="t" transform="translate(267.4 267.4)"><line class="c" y1="458.7" x2="458.7"/></g><g class="u" transform="translate(283.1 283.1)"><line class="c" y1="458.6" x2="458.6"/></g><g class="v" transform="translate(298.8 298.8)"><line class="c" y1="458.6" x2="458.6"/></g><g class="w" transform="translate(314.5 314.5)"><line class="c" y1="458.6" x2="458.6"/></g><g class="x" transform="translate(330.2 330.2)"><line class="c" y1="458.6" x2="458.6"/></g><g class="y" transform="translate(345.9 345.9)"><line class="c" y1="458.6" x2="458.6"/></g><g class="z" transform="translate(361.6 361.6)"><line class="c" y1="458.6" x2="458.6"/></g><g class="aa" transform="translate(377.3 377.3)"><line class="c" y1="458.6" x2="458.6"/></g><g class="ab" transform="translate(393 393)"><line class="c" y1="458.6" x2="458.6"/></g><g class="ac" transform="translate(408.6 408.6)"><line class="c" y1="458.7" x2="458.7"/></g><g class="ad" transform="translate(424.3 424.3)"><line class="c" y1="458.7" x2="458.7"/></g></g></svg>