<svg id="Group_38" data-name="Group 38" xmlns="http://www.w3.org/2000/svg" width="56.66" height="53.416" viewBox="0 0 56.66 53.416">
  <defs>
    <style>
      .cls-1 {
        fill: #f93b13;
      }

      .cls-2 {
        fill: #4d4d4d;
      }
    </style>
  </defs>
  <path id="Path_17" data-name="Path 17" class="cls-1" d="M52.864,13.043A26.408,26.408,0,0,0,42.788,3.451,29.6,29.6,0,0,0,28.3,0,30.379,30.379,0,0,0,13.8,3.451,25.655,25.655,0,0,0,3.658,13.043,26.3,26.3,0,0,0,0,26.708,26.122,26.122,0,0,0,3.658,40.373,25.655,25.655,0,0,0,13.8,49.966,29.788,29.788,0,0,0,28.3,53.416a30.379,30.379,0,0,0,14.493-3.451,26.6,26.6,0,0,0,10.145-9.593A25.715,25.715,0,0,0,56.66,26.708,26.405,26.405,0,0,0,52.864,13.043Z"/>
  <circle id="Ellipse_32" data-name="Ellipse 32" class="cls-2" cx="3.451" cy="3.451" r="3.451" transform="translate(24.776 24.569)"/>
</svg>
