<?xml version="1.0" encoding="utf-8"?>
<!-- Generator: Adobe Illustrator 24.0.0, SVG Export Plug-In . SVG Version: 6.00 Build 0)  -->
<svg version="1.1" id="Livello_1" xmlns="http://www.w3.org/2000/svg" xmlns:xlink="http://www.w3.org/1999/xlink" x="0px" y="0px"
	 viewBox="0 0 67.3 80" style="enable-background:new 0 0 67.3 80;" xml:space="preserve">
<style type="text/css">
	.st0{fill:#AF3C32;}
</style>
<path class="st0" d="M44.1,66.3v-4.7h1.7c0.6,0,1-0.4,1-1v-1.1h19.5c0.6,0,1-0.4,1-1V52c0-2-0.9-4-2.4-5.4L46.8,30.3V14.5
	c0-1.9-0.6-3.8-1.8-5.3l-4.4-5.8C38.9,1.2,36.4,0,33.7,0c-2.7,0-5.2,1.2-6.9,3.4l-4.4,5.8c-1.1,1.5-1.8,3.4-1.8,5.3v15.8L2.4,46.7
	C0.9,48,0,50,0,52v6.6c0,0.6,0.4,1,1,1h19.6v1.1c0,0.6,0.4,1,1,1h1.6v4.7c0,0.6,0.4,1,1,1h18.9C43.6,67.3,44.1,66.9,44.1,66.3z
	 M34.7,59.7V22h10.1v37.7H34.7z M63.6,48.1c1.1,1,1.7,2.4,1.7,3.9v5.6H46.8V33L63.6,48.1z M24,10.4l4.4-5.8C29.7,3,31.6,2,33.7,2
	c2.1,0,4,0.9,5.3,2.6l4.4,5.8c0.9,1.2,1.4,2.6,1.4,4V20H22.6v-5.5C22.6,13,23.1,11.6,24,10.4z M2,57.6V52c0-1.5,0.6-2.9,1.7-3.9
	l16.9-15.2v24.7L2,57.6L2,57.6z M22.6,22h10.1v37.7H22.6V22z M25.2,65.3v-3.7h16.8v3.7L25.2,65.3L25.2,65.3z"/>
<path class="st0" d="M25.7,18.3c0.6,0,1-0.4,1-1v-2.7c0-0.8,0.3-1.6,0.8-2.2L30,9.3c0.3-0.4,0.3-1.1-0.2-1.4
	c-0.4-0.3-1.1-0.3-1.4,0.1L26,11.1c-0.8,1-1.2,2.2-1.2,3.5v2.7C24.7,17.9,25.2,18.3,25.7,18.3z"/>
<path class="st0" d="M25.9,70.5v4.6c0,0.6,0.4,1,1,1s1-0.4,1-1v-4.6c0-0.6-0.4-1-1-1S25.9,69.9,25.9,70.5z"/>
<path class="st0" d="M39.4,70.5v4.6c0,0.6,0.4,1,1,1s1-0.4,1-1v-4.6c0-0.6-0.4-1-1-1S39.4,69.9,39.4,70.5z"/>
<path class="st0" d="M32.7,70.5V79c0,0.6,0.4,1,1,1s1-0.4,1-1v-8.5c0-0.6-0.4-1-1-1S32.7,69.9,32.7,70.5z"/>
</svg>
