<?xml version="1.0" encoding="utf-8"?>
<!-- Generator: Adobe Illustrator 24.0.0, SVG Export Plug-In . SVG Version: 6.00 Build 0)  -->
<svg version="1.1" id="Livello_1" xmlns="http://www.w3.org/2000/svg" xmlns:xlink="http://www.w3.org/1999/xlink" x="0px" y="0px"
	 viewBox="0 0 79.9 78" style="enable-background:new 0 0 79.9 78;" xml:space="preserve">
<style type="text/css">
	.st0{fill:#AF3C32;}
</style>
<path class="st0" d="M66.9,33.7l-0.8-1.4c-0.2-0.3-0.5-0.5-0.9-0.5c-0.4,0-0.7,0.2-0.9,0.5l-0.8,1.4c-0.7,1.3-1.7,2.3-3,3l-1.4,0.8
	c-0.3,0.2-0.5,0.5-0.5,0.9c0,0.4,0.2,0.7,0.5,0.9l1.4,0.8c1.3,0.7,2.3,1.7,3,3l0.8,1.4c0.2,0.3,0.5,0.5,0.9,0.5
	c0.4,0,0.7-0.2,0.9-0.5l0.8-1.4c0.7-1.3,1.7-2.3,3-3l1.4-0.8c0.3-0.2,0.5-0.5,0.5-0.9c0-0.4-0.2-0.7-0.5-0.9l-1.4-0.8
	C68.6,36,67.6,35,66.9,33.7z M65.3,41.9c-0.8-1.5-2-2.7-3.5-3.5c1.5-0.8,2.7-2,3.5-3.5c0.8,1.5,2,2.7,3.5,3.5
	C67.3,39.2,66.1,40.4,65.3,41.9z"/>
<path class="st0" d="M79.4,69.2l-1.8-1c-1.6-0.9-2.9-2.2-3.8-3.8l-1-1.8c-0.4-0.6-1.4-0.6-1.8,0l-1,1.8c-0.9,1.6-2.2,2.9-3.8,3.8
	l-1.8,1c-0.3,0.2-0.5,0.5-0.5,0.9c0,0.4,0.2,0.7,0.5,0.9l1.8,1c1.6,0.9,2.9,2.2,3.8,3.8l1,1.8c0.2,0.3,0.5,0.5,0.9,0.5
	s0.7-0.2,0.9-0.5l1-1.8c0.9-1.6,2.2-2.9,3.8-3.8l1.8-1c0.3-0.2,0.5-0.5,0.5-0.9C79.9,69.7,79.7,69.4,79.4,69.2z M76.7,70.2
	c-1.9,1.1-3.5,2.6-4.6,4.6L72,74.9L72,74.8c-1.1-1.9-2.6-3.5-4.6-4.6l-0.2-0.1l0.2-0.1c1.9-1.1,3.5-2.6,4.6-4.6l0.1-0.2l0.1,0.2
	c1.1,1.9,2.6,3.5,4.6,4.6l0.2,0.1L76.7,70.2z"/>
<path class="st0" d="M16.2,7.4l-1.9-1c-1.7-0.9-3.1-2.3-4-4l-1-1.9c-0.4-0.6-1.4-0.6-1.8,0l-1,1.9c-0.9,1.7-2.3,3.1-4,4l-1.9,1
	C0.2,7.6,0,8,0,8.3C0,8.7,0.2,9,0.5,9.2l1.9,1c1.7,0.9,3.1,2.3,4,4l1,1.9c0.2,0.3,0.5,0.5,0.9,0.5s0.7-0.2,0.9-0.5l1-1.9
	c0.9-1.7,2.3-3.1,4-4l1.9-1c0.3-0.2,0.5-0.5,0.5-0.9C16.7,8,16.5,7.6,16.2,7.4z M13.4,8.5c-2,1.1-3.7,2.8-4.8,4.8l-0.2,0.3l-0.2-0.3
	c-1.1-2-2.8-3.7-4.8-4.8L3.1,8.3l0.3-0.2c2-1.1,3.7-2.8,4.8-4.8L8.4,3l0.2,0.3c1.1,2,2.8,3.7,4.8,4.8l0.3,0.2L13.4,8.5z"/>
<path class="st0" d="M58.9,30.2l1.1-2c1-1.8,2.5-3.3,4.3-4.3l2-1.1c0.3-0.2,0.5-0.5,0.5-0.9c0-0.4-0.2-0.7-0.5-0.9l-2-1.1
	c-1.8-1-3.3-2.5-4.3-4.3l-1.1-2c-0.4-0.6-1.4-0.6-1.8,0l-1.1,2c-1,1.8-2.5,3.3-4.3,4.3l-2,1.1c-0.3,0.2-0.5,0.5-0.5,0.9
	s0.2,0.7,0.5,0.9l2,1.1c1.8,1,3.3,2.5,4.3,4.3l1.1,2c0.2,0.3,0.5,0.5,0.9,0.5S58.7,30.6,58.9,30.2z M58,27.7l-0.2-0.4
	c-1.2-2.2-3-3.9-5.1-5.1l-0.4-0.2l0.4-0.2c2.2-1.2,3.9-3,5.1-5.1l0.2-0.4l0.2,0.4c1.2,2.2,3,3.9,5.1,5.1l0.4,0.2l-0.4,0.2
	c-2.2,1.2-3.9,3-5.1,5.1L58,27.7z"/>
<path class="st0" d="M47.4,0c-8.7,0-16.9,3.4-23.1,9.6C17.8,16,14.4,24.9,14.7,34c-3,1.1-5.7,2.9-7.9,5.1c0,0,0,0,0,0s0,0,0,0
	C2.6,43.3,0.1,49,0.1,55.2C0.1,67.8,10.3,78,22.9,78c6.3,0,11.9-2.5,16.1-6.6c0,0,0,0,0,0s0,0,0-0.1c1.8-1.8,3.3-3.9,4.4-6.2
	c1.3,0.2,2.7,0.3,4,0.3c8.6,0,16.8-3.4,23-9.6c6.2-6.2,9.6-14.4,9.6-23.1c0-8.7-3.4-16.9-9.6-23.1S56.1,0,47.4,0z M38.2,69.2
	L8.9,39.9c2.2-2,4.8-3.6,7.7-4.5l26,26C41.8,64.3,40.2,67,38.2,69.2z M29.1,75L3,49c0.9-2.9,2.5-5.5,4.5-7.7l29.3,29.3
	C34.6,72.6,32,74.1,29.1,75z M43.3,59.2L18.9,34.8c1.3-0.2,2.6-0.4,4-0.4c11.5,0,20.8,9.3,20.8,20.8C43.6,56.6,43.5,57.9,43.3,59.2z
	 M2.1,55.2c0-1.4,0.1-2.7,0.4-4l24.3,24.3c-1.3,0.2-2.6,0.4-4,0.4C11.4,76,2.1,66.7,2.1,55.2z M69,54.4c-6.6,6.6-15.6,9.8-24.8,8.8
	c0.9-2.5,1.4-5.1,1.4-7.9c0-12.6-10.2-22.8-22.8-22.8c-2.1,0-4.2,0.3-6.2,0.9c-0.2-8.3,3.1-16.4,9-22.3c5.8-5.8,13.5-9,21.7-9
	S63.2,5.2,69,11c5.8,5.8,9,13.5,9,21.7C78,40.9,74.8,48.6,69,54.4z"/>
</svg>
