<?xml version="1.0" encoding="utf-8"?>
<!-- Generator: Adobe Illustrator 24.0.0, SVG Export Plug-In . SVG Version: 6.00 Build 0)  -->
<svg version="1.1" id="Livello_1" xmlns="http://www.w3.org/2000/svg" xmlns:xlink="http://www.w3.org/1999/xlink" x="0px" y="0px"
	 viewBox="0 0 82.2 62.5" style="enable-background:new 0 0 82.2 62.5;" xml:space="preserve">
<style type="text/css">
	.st0{fill:none;}
	.st1{fill:#AF3C32;stroke:#FFFFFF;stroke-miterlimit:10;}
	.st2{fill:#FFFFFF;stroke:#FFFFFF;stroke-miterlimit:10;}
	.st3{fill:#FFFFFF;}
	.st4{fill:none;stroke:#AF3C32;stroke-width:2;stroke-linecap:round;stroke-miterlimit:10;}
	.st5{fill:none;stroke:#AF3C32;stroke-width:2;stroke-linecap:round;stroke-linejoin:round;stroke-miterlimit:10;}
</style>
<path class="st0" d="M41,5.3c-14.3,0-26,11.7-26,26c0,2.4,0.4,4.8,1,7c6.2,2,14.8,3.3,25,3.3s18.8-1.3,25-3.3c0.7-2.3,1-4.6,1-7
	C67,17,55.3,5.3,41,5.3z"/>
<path class="st0" d="M5.3,30.4c0,2.5,3,5,8.5,7.1c-0.5-2-0.7-4.1-0.7-6.2c0-2.8,0.4-5.5,1.2-8C8.6,25.4,5.3,28,5.3,30.4z"/>
<path class="st0" d="M16.7,40.6c3.8,9.7,13.2,16.7,24.3,16.7s20.5-7,24.3-16.7c-6.5,1.9-14.9,3-24.3,3S23.2,42.5,16.7,40.6z"/>
<path class="st0" d="M67.8,23.3c0.8,2.5,1.2,5.2,1.2,8c0,2.1-0.2,4.2-0.7,6.2c5.4-2.1,8.5-4.6,8.5-7.1C76.8,28,73.4,25.4,67.8,23.3z
	"/>
<g>
	<path class="st1" d="M41.1,60.8c-12.6,0-23.8-8-28-19.8C5.6,38.1,1.7,34.5,1.7,30.3c0-4.3,4.2-8,12.2-10.8
		C18.5,8.8,29.4,1.7,41,1.7c11.9,0,22.5,7,27.1,17.8c8,2.8,12.3,6.5,12.4,10.8c0,4.2-3.9,7.9-11.4,10.7
		C64.9,52.8,53.7,60.8,41.1,60.8z"/>
	<path class="st2" d="M41,2.8c11.6,0,21.9,6.9,26.3,17.6c7.7,2.6,12,6.1,12.1,9.9c0,3.8-4,7.2-11.2,9.8
		c-3.9,11.8-14.7,19.6-27.1,19.6S17.9,51.8,14,40.1c-7.2-2.6-11.2-6-11.2-9.8S7,23,14.7,20.4C19.1,9.9,29.6,2.8,41,2.8 M41,0.6
		c-11.9,0-23,7.2-27.9,18C2.8,22.3,0.6,27,0.6,30.3c0,3.2,2.1,7.8,11.7,11.5c4.5,12.1,15.9,20.1,28.8,20.1c12.9,0,24.4-8,28.8-20.1
		c9.6-3.7,11.7-8.3,11.7-11.5v0l0,0c-0.1-3.3-2.4-7.9-12.7-11.6C64,7.6,53.1,0.6,41,0.6L41,0.6z"/>
</g>
<path class="st3" d="M13.8,37.5c-5.5-2.1-8.5-4.6-8.5-7.1c0-2.4,3.3-5,9-7.1c-0.8,2.5-1.2,5.2-1.2,8C13.1,33.4,13.3,35.5,13.8,37.5z
	"/>
<path class="st3" d="M41,57.3c-11.1,0-20.5-7-24.3-16.7c6.5,1.9,14.9,3,24.3,3s17.8-1.1,24.3-3C61.5,50.3,52.1,57.3,41,57.3z"/>
<path class="st3" d="M66,38.3c-6.2,2-14.8,3.3-25,3.3s-18.8-1.3-25-3.3c-0.6-2.2-1-4.6-1-7c0-14.3,11.7-26,26-26s26,11.7,26,26
	C67,33.7,66.7,36,66,38.3z"/>
<path class="st3" d="M68.3,37.5c0.5-2,0.7-4.1,0.7-6.2c0-2.8-0.4-5.5-1.2-8c5.6,2.1,9,4.7,9,7.1C76.8,32.9,73.7,35.4,68.3,37.5z"/>
<g>
	<line class="st4" x1="41" y1="13.9" x2="41" y2="34.8"/>
	<polyline class="st5" points="33.9,20.9 41,13.9 48.1,20.9 	"/>
</g>
</svg>
